<mxfile host="app.diagrams.net" modified="2024-03-18T08:18:27.350Z" agent="Mozilla/5.0 (Windows NT 10.0; Win64; x64) AppleWebKit/537.36 (KHTML, like Gecko) Chrome/122.0.0.0 Safari/537.36 Edg/122.0.0.0" etag="AXARyukdLRIml2cIasOm" version="24.0.7" type="device">
  <diagram name="第 1 页" id="vvpn5MJgwd7s_0QRsiab">
    <mxGraphModel dx="1379" dy="759" grid="1" gridSize="10" guides="1" tooltips="1" connect="1" arrows="1" fold="1" page="1" pageScale="1" pageWidth="827" pageHeight="1169" math="0" shadow="0">
      <root>
        <mxCell id="0" />
        <mxCell id="1" parent="0" />
        <mxCell id="V58z3wZf6ePW2-Bj4kOd-3" value="" style="edgeStyle=orthogonalEdgeStyle;rounded=0;orthogonalLoop=1;jettySize=auto;html=1;exitX=0.5;exitY=0.093;exitDx=0;exitDy=0;exitPerimeter=0;" edge="1" parent="1" source="V58z3wZf6ePW2-Bj4kOd-1" target="V58z3wZf6ePW2-Bj4kOd-2">
          <mxGeometry relative="1" as="geometry" />
        </mxCell>
        <mxCell id="V58z3wZf6ePW2-Bj4kOd-1" value="&lt;font style=&quot;font-size: 20px;&quot;&gt;&lt;font style=&quot;font-size: 20px;&quot;&gt;违规问&lt;/font&gt;题&lt;/font&gt;" style="ellipse;shape=cloud;whiteSpace=wrap;html=1;fillColor=#ffe6cc;strokeColor=#d79b00;" vertex="1" parent="1">
          <mxGeometry x="315" y="500" width="190" height="110" as="geometry" />
        </mxCell>
        <mxCell id="V58z3wZf6ePW2-Bj4kOd-5" value="" style="edgeStyle=orthogonalEdgeStyle;rounded=0;orthogonalLoop=1;jettySize=auto;html=1;" edge="1" parent="1" source="V58z3wZf6ePW2-Bj4kOd-2" target="V58z3wZf6ePW2-Bj4kOd-4">
          <mxGeometry relative="1" as="geometry" />
        </mxCell>
        <mxCell id="V58z3wZf6ePW2-Bj4kOd-2" value="&lt;font style=&quot;font-size: 20px;&quot;&gt;大语言模型&lt;/font&gt;&lt;div&gt;&lt;font style=&quot;font-size: 20px;&quot;&gt;（api接口）&lt;/font&gt;&lt;/div&gt;" style="shape=hexagon;perimeter=hexagonPerimeter2;whiteSpace=wrap;html=1;fixedSize=1;fillColor=#f8cecc;strokeColor=#b85450;" vertex="1" parent="1">
          <mxGeometry x="352" y="370" width="116" height="100" as="geometry" />
        </mxCell>
        <mxCell id="V58z3wZf6ePW2-Bj4kOd-4" value="&lt;font style=&quot;font-size: 20px;&quot;&gt;回答&lt;/font&gt;" style="rounded=1;whiteSpace=wrap;html=1;fillColor=#e1d5e7;strokeColor=#9673a6;" vertex="1" parent="1">
          <mxGeometry x="350" y="250" width="120" height="60" as="geometry" />
        </mxCell>
      </root>
    </mxGraphModel>
  </diagram>
</mxfile>
